<mxfile host="app.diagrams.net" agent="Mozilla/5.0 (Windows NT 10.0; Win64; x64) AppleWebKit/537.36 (KHTML, like Gecko) Chrome/131.0.0.0 Safari/537.36" version="24.8.6">
  <diagram name="Page-1" id="2YBvvXClWsGukQMizWep">
    <mxGraphModel dx="880" dy="426" grid="1" gridSize="10" guides="1" tooltips="1" connect="1" arrows="1" fold="1" page="1" pageScale="1" pageWidth="850" pageHeight="1100" math="0" shadow="0">
      <root>
        <mxCell id="0" />
        <mxCell id="1" parent="0" />
        <mxCell id="pHcF78AE0VXEvS_Ts0Yd-72" value="" style="shape=umlLifeline;perimeter=lifelinePerimeter;whiteSpace=wrap;html=1;container=1;dropTarget=0;collapsible=0;recursiveResize=0;outlineConnect=0;portConstraint=eastwest;newEdgeStyle={&quot;curved&quot;:0,&quot;rounded&quot;:0};participant=umlActor;" vertex="1" parent="1">
          <mxGeometry x="225" y="60" width="20" height="500" as="geometry" />
        </mxCell>
        <mxCell id="pHcF78AE0VXEvS_Ts0Yd-73" value="" style="html=1;points=[[0,0,0,0,5],[0,1,0,0,-5],[1,0,0,0,5],[1,1,0,0,-5]];perimeter=orthogonalPerimeter;outlineConnect=0;targetShapes=umlLifeline;portConstraint=eastwest;newEdgeStyle={&quot;curved&quot;:0,&quot;rounded&quot;:0};" vertex="1" parent="pHcF78AE0VXEvS_Ts0Yd-72">
          <mxGeometry x="5" y="60" width="10" height="250" as="geometry" />
        </mxCell>
        <mxCell id="pHcF78AE0VXEvS_Ts0Yd-75" style="edgeStyle=orthogonalEdgeStyle;rounded=0;orthogonalLoop=1;jettySize=auto;html=1;curved=0;exitX=1;exitY=0;exitDx=0;exitDy=5;exitPerimeter=0;entryX=0;entryY=0;entryDx=0;entryDy=5;entryPerimeter=0;" edge="1" parent="1" source="pHcF78AE0VXEvS_Ts0Yd-73" target="pHcF78AE0VXEvS_Ts0Yd-82">
          <mxGeometry relative="1" as="geometry">
            <mxPoint x="320" y="155" as="targetPoint" />
          </mxGeometry>
        </mxCell>
        <mxCell id="pHcF78AE0VXEvS_Ts0Yd-76" value="Insere o cartão" style="edgeLabel;html=1;align=center;verticalAlign=middle;resizable=0;points=[];" vertex="1" connectable="0" parent="pHcF78AE0VXEvS_Ts0Yd-75">
          <mxGeometry x="-0.1273" y="1" relative="1" as="geometry">
            <mxPoint x="8" as="offset" />
          </mxGeometry>
        </mxCell>
        <mxCell id="pHcF78AE0VXEvS_Ts0Yd-79" value="front" style="shape=umlLifeline;perimeter=lifelinePerimeter;whiteSpace=wrap;html=1;container=1;dropTarget=0;collapsible=0;recursiveResize=0;outlineConnect=0;portConstraint=eastwest;newEdgeStyle={&quot;curved&quot;:0,&quot;rounded&quot;:0};participant=umlBoundary;" vertex="1" parent="1">
          <mxGeometry x="340" y="60" width="50" height="500" as="geometry" />
        </mxCell>
        <mxCell id="pHcF78AE0VXEvS_Ts0Yd-82" value="" style="html=1;points=[[0,0,0,0,5],[0,1,0,0,-5],[1,0,0,0,5],[1,1,0,0,-5]];perimeter=orthogonalPerimeter;outlineConnect=0;targetShapes=umlLifeline;portConstraint=eastwest;newEdgeStyle={&quot;curved&quot;:0,&quot;rounded&quot;:0};" vertex="1" parent="pHcF78AE0VXEvS_Ts0Yd-79">
          <mxGeometry x="20" y="60" width="10" height="80" as="geometry" />
        </mxCell>
        <mxCell id="pHcF78AE0VXEvS_Ts0Yd-101" value="" style="html=1;points=[[0,0,0,0,5],[0,1,0,0,-5],[1,0,0,0,5],[1,1,0,0,-5]];perimeter=orthogonalPerimeter;outlineConnect=0;targetShapes=umlLifeline;portConstraint=eastwest;newEdgeStyle={&quot;curved&quot;:0,&quot;rounded&quot;:0};" vertex="1" parent="pHcF78AE0VXEvS_Ts0Yd-79">
          <mxGeometry x="20" y="160" width="10" height="80" as="geometry" />
        </mxCell>
        <mxCell id="pHcF78AE0VXEvS_Ts0Yd-114" value="" style="html=1;points=[[0,0,0,0,5],[0,1,0,0,-5],[1,0,0,0,5],[1,1,0,0,-5]];perimeter=orthogonalPerimeter;outlineConnect=0;targetShapes=umlLifeline;portConstraint=eastwest;newEdgeStyle={&quot;curved&quot;:0,&quot;rounded&quot;:0};" vertex="1" parent="pHcF78AE0VXEvS_Ts0Yd-79">
          <mxGeometry x="20" y="270" width="10" height="80" as="geometry" />
        </mxCell>
        <mxCell id="pHcF78AE0VXEvS_Ts0Yd-80" value="control" style="shape=umlLifeline;perimeter=lifelinePerimeter;whiteSpace=wrap;html=1;container=1;dropTarget=0;collapsible=0;recursiveResize=0;outlineConnect=0;portConstraint=eastwest;newEdgeStyle={&quot;curved&quot;:0,&quot;rounded&quot;:0};participant=umlControl;" vertex="1" parent="1">
          <mxGeometry x="440" y="55" width="60" height="505" as="geometry" />
        </mxCell>
        <mxCell id="pHcF78AE0VXEvS_Ts0Yd-87" value="" style="html=1;points=[[0,0,0,0,5],[0,1,0,0,-5],[1,0,0,0,5],[1,1,0,0,-5]];perimeter=orthogonalPerimeter;outlineConnect=0;targetShapes=umlLifeline;portConstraint=eastwest;newEdgeStyle={&quot;curved&quot;:0,&quot;rounded&quot;:0};" vertex="1" parent="pHcF78AE0VXEvS_Ts0Yd-80">
          <mxGeometry x="25" y="65" width="10" height="55" as="geometry" />
        </mxCell>
        <mxCell id="pHcF78AE0VXEvS_Ts0Yd-104" value="" style="html=1;points=[[0,0,0,0,5],[0,1,0,0,-5],[1,0,0,0,5],[1,1,0,0,-5]];perimeter=orthogonalPerimeter;outlineConnect=0;targetShapes=umlLifeline;portConstraint=eastwest;newEdgeStyle={&quot;curved&quot;:0,&quot;rounded&quot;:0};" vertex="1" parent="pHcF78AE0VXEvS_Ts0Yd-80">
          <mxGeometry x="25" y="165" width="10" height="80" as="geometry" />
        </mxCell>
        <mxCell id="pHcF78AE0VXEvS_Ts0Yd-117" value="" style="html=1;points=[[0,0,0,0,5],[0,1,0,0,-5],[1,0,0,0,5],[1,1,0,0,-5]];perimeter=orthogonalPerimeter;outlineConnect=0;targetShapes=umlLifeline;portConstraint=eastwest;newEdgeStyle={&quot;curved&quot;:0,&quot;rounded&quot;:0};" vertex="1" parent="pHcF78AE0VXEvS_Ts0Yd-80">
          <mxGeometry x="25" y="275" width="10" height="80" as="geometry" />
        </mxCell>
        <mxCell id="pHcF78AE0VXEvS_Ts0Yd-81" value="conta corrente" style="shape=umlLifeline;perimeter=lifelinePerimeter;whiteSpace=wrap;html=1;container=1;dropTarget=0;collapsible=0;recursiveResize=0;outlineConnect=0;portConstraint=eastwest;newEdgeStyle={&quot;curved&quot;:0,&quot;rounded&quot;:0};" vertex="1" parent="1">
          <mxGeometry x="560" y="55" width="90" height="505" as="geometry" />
        </mxCell>
        <mxCell id="pHcF78AE0VXEvS_Ts0Yd-88" value="" style="html=1;points=[[0,0,0,0,5],[0,1,0,0,-5],[1,0,0,0,5],[1,1,0,0,-5]];perimeter=orthogonalPerimeter;outlineConnect=0;targetShapes=umlLifeline;portConstraint=eastwest;newEdgeStyle={&quot;curved&quot;:0,&quot;rounded&quot;:0};" vertex="1" parent="pHcF78AE0VXEvS_Ts0Yd-81">
          <mxGeometry x="40" y="65" width="10" height="55" as="geometry" />
        </mxCell>
        <mxCell id="pHcF78AE0VXEvS_Ts0Yd-107" value="" style="html=1;points=[[0,0,0,0,5],[0,1,0,0,-5],[1,0,0,0,5],[1,1,0,0,-5]];perimeter=orthogonalPerimeter;outlineConnect=0;targetShapes=umlLifeline;portConstraint=eastwest;newEdgeStyle={&quot;curved&quot;:0,&quot;rounded&quot;:0};" vertex="1" parent="pHcF78AE0VXEvS_Ts0Yd-81">
          <mxGeometry x="40" y="165" width="10" height="65" as="geometry" />
        </mxCell>
        <mxCell id="pHcF78AE0VXEvS_Ts0Yd-120" value="" style="html=1;points=[[0,0,0,0,5],[0,1,0,0,-5],[1,0,0,0,5],[1,1,0,0,-5]];perimeter=orthogonalPerimeter;outlineConnect=0;targetShapes=umlLifeline;portConstraint=eastwest;newEdgeStyle={&quot;curved&quot;:0,&quot;rounded&quot;:0};" vertex="1" parent="pHcF78AE0VXEvS_Ts0Yd-81">
          <mxGeometry x="40" y="275" width="10" height="65" as="geometry" />
        </mxCell>
        <mxCell id="pHcF78AE0VXEvS_Ts0Yd-84" value="Cliente" style="text;html=1;align=center;verticalAlign=middle;resizable=0;points=[];autosize=1;strokeColor=none;fillColor=none;" vertex="1" parent="1">
          <mxGeometry x="205" y="30" width="60" height="30" as="geometry" />
        </mxCell>
        <mxCell id="pHcF78AE0VXEvS_Ts0Yd-89" style="edgeStyle=orthogonalEdgeStyle;rounded=0;orthogonalLoop=1;jettySize=auto;html=1;curved=0;exitX=1;exitY=0;exitDx=0;exitDy=5;exitPerimeter=0;entryX=0;entryY=0;entryDx=0;entryDy=5;entryPerimeter=0;" edge="1" parent="1" source="pHcF78AE0VXEvS_Ts0Yd-82" target="pHcF78AE0VXEvS_Ts0Yd-87">
          <mxGeometry relative="1" as="geometry" />
        </mxCell>
        <mxCell id="pHcF78AE0VXEvS_Ts0Yd-97" value="&lt;font style=&quot;font-size: 10px;&quot;&gt;Valida o cartão&lt;/font&gt;" style="edgeLabel;html=1;align=center;verticalAlign=middle;resizable=0;points=[];" vertex="1" connectable="0" parent="pHcF78AE0VXEvS_Ts0Yd-89">
          <mxGeometry x="-0.1663" y="-1" relative="1" as="geometry">
            <mxPoint as="offset" />
          </mxGeometry>
        </mxCell>
        <mxCell id="pHcF78AE0VXEvS_Ts0Yd-90" style="edgeStyle=orthogonalEdgeStyle;rounded=0;orthogonalLoop=1;jettySize=auto;html=1;curved=0;exitX=1;exitY=0;exitDx=0;exitDy=5;exitPerimeter=0;entryX=0;entryY=0;entryDx=0;entryDy=5;entryPerimeter=0;" edge="1" parent="1" source="pHcF78AE0VXEvS_Ts0Yd-87" target="pHcF78AE0VXEvS_Ts0Yd-88">
          <mxGeometry relative="1" as="geometry" />
        </mxCell>
        <mxCell id="pHcF78AE0VXEvS_Ts0Yd-98" value="validaCartao()" style="edgeLabel;html=1;align=center;verticalAlign=middle;resizable=0;points=[];" vertex="1" connectable="0" parent="pHcF78AE0VXEvS_Ts0Yd-90">
          <mxGeometry x="-0.1264" y="-1" relative="1" as="geometry">
            <mxPoint as="offset" />
          </mxGeometry>
        </mxCell>
        <mxCell id="pHcF78AE0VXEvS_Ts0Yd-92" style="edgeStyle=orthogonalEdgeStyle;rounded=0;orthogonalLoop=1;jettySize=auto;html=1;curved=0;exitX=0;exitY=1;exitDx=0;exitDy=-5;exitPerimeter=0;entryX=1;entryY=1;entryDx=0;entryDy=-5;entryPerimeter=0;dashed=1;dashPattern=12 12;" edge="1" parent="1" source="pHcF78AE0VXEvS_Ts0Yd-88" target="pHcF78AE0VXEvS_Ts0Yd-87">
          <mxGeometry relative="1" as="geometry" />
        </mxCell>
        <mxCell id="pHcF78AE0VXEvS_Ts0Yd-99" value="true:bool" style="edgeLabel;html=1;align=center;verticalAlign=middle;resizable=0;points=[];" vertex="1" connectable="0" parent="pHcF78AE0VXEvS_Ts0Yd-92">
          <mxGeometry x="0.152" y="-3" relative="1" as="geometry">
            <mxPoint x="12" as="offset" />
          </mxGeometry>
        </mxCell>
        <mxCell id="pHcF78AE0VXEvS_Ts0Yd-94" style="edgeStyle=orthogonalEdgeStyle;rounded=0;orthogonalLoop=1;jettySize=auto;html=1;curved=0;exitX=0;exitY=1;exitDx=0;exitDy=-5;exitPerimeter=0;" edge="1" parent="1" source="pHcF78AE0VXEvS_Ts0Yd-87" target="pHcF78AE0VXEvS_Ts0Yd-82">
          <mxGeometry relative="1" as="geometry">
            <Array as="points">
              <mxPoint x="390" y="170" />
              <mxPoint x="390" y="170" />
            </Array>
          </mxGeometry>
        </mxCell>
        <mxCell id="pHcF78AE0VXEvS_Ts0Yd-100" value="solicita senha" style="edgeLabel;html=1;align=center;verticalAlign=middle;resizable=0;points=[];" vertex="1" connectable="0" parent="pHcF78AE0VXEvS_Ts0Yd-94">
          <mxGeometry x="0.0821" relative="1" as="geometry">
            <mxPoint x="11" as="offset" />
          </mxGeometry>
        </mxCell>
        <mxCell id="pHcF78AE0VXEvS_Ts0Yd-102" style="edgeStyle=orthogonalEdgeStyle;rounded=0;orthogonalLoop=1;jettySize=auto;html=1;curved=0;exitX=1;exitY=1;exitDx=0;exitDy=-5;exitPerimeter=0;entryX=0;entryY=0;entryDx=0;entryDy=5;entryPerimeter=0;" edge="1" parent="1" source="pHcF78AE0VXEvS_Ts0Yd-73" target="pHcF78AE0VXEvS_Ts0Yd-101">
          <mxGeometry relative="1" as="geometry">
            <Array as="points">
              <mxPoint x="240" y="225" />
            </Array>
          </mxGeometry>
        </mxCell>
        <mxCell id="pHcF78AE0VXEvS_Ts0Yd-103" value="digita senha" style="edgeLabel;html=1;align=center;verticalAlign=middle;resizable=0;points=[];" vertex="1" connectable="0" parent="pHcF78AE0VXEvS_Ts0Yd-102">
          <mxGeometry x="0.2" y="-2" relative="1" as="geometry">
            <mxPoint x="44" as="offset" />
          </mxGeometry>
        </mxCell>
        <mxCell id="pHcF78AE0VXEvS_Ts0Yd-105" style="edgeStyle=orthogonalEdgeStyle;rounded=0;orthogonalLoop=1;jettySize=auto;html=1;curved=0;exitX=1;exitY=0;exitDx=0;exitDy=5;exitPerimeter=0;entryX=0;entryY=0;entryDx=0;entryDy=5;entryPerimeter=0;" edge="1" parent="1" source="pHcF78AE0VXEvS_Ts0Yd-101" target="pHcF78AE0VXEvS_Ts0Yd-104">
          <mxGeometry relative="1" as="geometry" />
        </mxCell>
        <mxCell id="pHcF78AE0VXEvS_Ts0Yd-106" value="valida senha" style="edgeLabel;html=1;align=center;verticalAlign=middle;resizable=0;points=[];" vertex="1" connectable="0" parent="pHcF78AE0VXEvS_Ts0Yd-105">
          <mxGeometry x="-0.2842" y="1" relative="1" as="geometry">
            <mxPoint x="6" as="offset" />
          </mxGeometry>
        </mxCell>
        <mxCell id="pHcF78AE0VXEvS_Ts0Yd-108" style="edgeStyle=orthogonalEdgeStyle;rounded=0;orthogonalLoop=1;jettySize=auto;html=1;curved=0;exitX=1;exitY=0;exitDx=0;exitDy=5;exitPerimeter=0;entryX=0;entryY=0;entryDx=0;entryDy=5;entryPerimeter=0;" edge="1" parent="1" source="pHcF78AE0VXEvS_Ts0Yd-104" target="pHcF78AE0VXEvS_Ts0Yd-107">
          <mxGeometry relative="1" as="geometry" />
        </mxCell>
        <mxCell id="pHcF78AE0VXEvS_Ts0Yd-109" value="validaSenha()" style="edgeLabel;html=1;align=center;verticalAlign=middle;resizable=0;points=[];" vertex="1" connectable="0" parent="pHcF78AE0VXEvS_Ts0Yd-108">
          <mxGeometry x="-0.439" y="1" relative="1" as="geometry">
            <mxPoint x="20" as="offset" />
          </mxGeometry>
        </mxCell>
        <mxCell id="pHcF78AE0VXEvS_Ts0Yd-110" style="edgeStyle=orthogonalEdgeStyle;rounded=0;orthogonalLoop=1;jettySize=auto;html=1;curved=0;exitX=0;exitY=1;exitDx=0;exitDy=-5;exitPerimeter=0;dashed=1;dashPattern=12 12;" edge="1" parent="1" source="pHcF78AE0VXEvS_Ts0Yd-107">
          <mxGeometry relative="1" as="geometry">
            <mxPoint x="475" y="280" as="targetPoint" />
            <Array as="points">
              <mxPoint x="475" y="280" />
            </Array>
          </mxGeometry>
        </mxCell>
        <mxCell id="pHcF78AE0VXEvS_Ts0Yd-111" value="true:bool" style="edgeLabel;html=1;align=center;verticalAlign=middle;resizable=0;points=[];" vertex="1" connectable="0" parent="pHcF78AE0VXEvS_Ts0Yd-110">
          <mxGeometry x="0.1395" y="2" relative="1" as="geometry">
            <mxPoint x="11" y="-2" as="offset" />
          </mxGeometry>
        </mxCell>
        <mxCell id="pHcF78AE0VXEvS_Ts0Yd-112" style="edgeStyle=orthogonalEdgeStyle;rounded=0;orthogonalLoop=1;jettySize=auto;html=1;curved=0;exitX=0;exitY=1;exitDx=0;exitDy=-5;exitPerimeter=0;entryX=1;entryY=1;entryDx=0;entryDy=-5;entryPerimeter=0;" edge="1" parent="1" source="pHcF78AE0VXEvS_Ts0Yd-104" target="pHcF78AE0VXEvS_Ts0Yd-101">
          <mxGeometry relative="1" as="geometry" />
        </mxCell>
        <mxCell id="pHcF78AE0VXEvS_Ts0Yd-113" value="solicita saldo" style="edgeLabel;html=1;align=center;verticalAlign=middle;resizable=0;points=[];" vertex="1" connectable="0" parent="pHcF78AE0VXEvS_Ts0Yd-112">
          <mxGeometry x="0.2788" relative="1" as="geometry">
            <mxPoint x="16" as="offset" />
          </mxGeometry>
        </mxCell>
        <mxCell id="pHcF78AE0VXEvS_Ts0Yd-115" style="edgeStyle=orthogonalEdgeStyle;rounded=0;orthogonalLoop=1;jettySize=auto;html=1;curved=0;exitX=1;exitY=1;exitDx=0;exitDy=-5;exitPerimeter=0;entryX=0;entryY=0;entryDx=0;entryDy=5;entryPerimeter=0;" edge="1" parent="1" source="pHcF78AE0VXEvS_Ts0Yd-73" target="pHcF78AE0VXEvS_Ts0Yd-114">
          <mxGeometry relative="1" as="geometry">
            <Array as="points">
              <mxPoint x="240" y="335" />
            </Array>
          </mxGeometry>
        </mxCell>
        <mxCell id="pHcF78AE0VXEvS_Ts0Yd-116" value="digita valor" style="edgeLabel;html=1;align=center;verticalAlign=middle;resizable=0;points=[];" vertex="1" connectable="0" parent="pHcF78AE0VXEvS_Ts0Yd-115">
          <mxGeometry x="0.1167" y="1" relative="1" as="geometry">
            <mxPoint as="offset" />
          </mxGeometry>
        </mxCell>
        <mxCell id="pHcF78AE0VXEvS_Ts0Yd-118" style="edgeStyle=orthogonalEdgeStyle;rounded=0;orthogonalLoop=1;jettySize=auto;html=1;curved=0;exitX=1;exitY=0;exitDx=0;exitDy=5;exitPerimeter=0;entryX=0;entryY=0;entryDx=0;entryDy=5;entryPerimeter=0;" edge="1" parent="1" source="pHcF78AE0VXEvS_Ts0Yd-114" target="pHcF78AE0VXEvS_Ts0Yd-117">
          <mxGeometry relative="1" as="geometry" />
        </mxCell>
        <mxCell id="pHcF78AE0VXEvS_Ts0Yd-119" value="verifica saldo" style="edgeLabel;html=1;align=center;verticalAlign=middle;resizable=0;points=[];" vertex="1" connectable="0" parent="pHcF78AE0VXEvS_Ts0Yd-118">
          <mxGeometry x="-0.0395" relative="1" as="geometry">
            <mxPoint as="offset" />
          </mxGeometry>
        </mxCell>
        <mxCell id="pHcF78AE0VXEvS_Ts0Yd-121" style="edgeStyle=orthogonalEdgeStyle;rounded=0;orthogonalLoop=1;jettySize=auto;html=1;curved=0;exitX=1;exitY=0;exitDx=0;exitDy=5;exitPerimeter=0;entryX=0;entryY=0;entryDx=0;entryDy=5;entryPerimeter=0;" edge="1" parent="1" source="pHcF78AE0VXEvS_Ts0Yd-117" target="pHcF78AE0VXEvS_Ts0Yd-120">
          <mxGeometry relative="1" as="geometry" />
        </mxCell>
        <mxCell id="pHcF78AE0VXEvS_Ts0Yd-122" value="verificaSaldo()" style="edgeLabel;html=1;align=center;verticalAlign=middle;resizable=0;points=[];" vertex="1" connectable="0" parent="pHcF78AE0VXEvS_Ts0Yd-121">
          <mxGeometry x="-0.26" y="2" relative="1" as="geometry">
            <mxPoint x="9" as="offset" />
          </mxGeometry>
        </mxCell>
        <mxCell id="pHcF78AE0VXEvS_Ts0Yd-123" style="edgeStyle=orthogonalEdgeStyle;rounded=0;orthogonalLoop=1;jettySize=auto;html=1;curved=0;exitX=0;exitY=1;exitDx=0;exitDy=-5;exitPerimeter=0;dashed=1;dashPattern=12 12;" edge="1" parent="1" source="pHcF78AE0VXEvS_Ts0Yd-120" target="pHcF78AE0VXEvS_Ts0Yd-117">
          <mxGeometry relative="1" as="geometry">
            <Array as="points">
              <mxPoint x="510" y="390" />
              <mxPoint x="510" y="390" />
            </Array>
          </mxGeometry>
        </mxCell>
        <mxCell id="pHcF78AE0VXEvS_Ts0Yd-124" value="true:bool" style="edgeLabel;html=1;align=center;verticalAlign=middle;resizable=0;points=[];" vertex="1" connectable="0" parent="pHcF78AE0VXEvS_Ts0Yd-123">
          <mxGeometry x="0.07" y="2" relative="1" as="geometry">
            <mxPoint y="-2" as="offset" />
          </mxGeometry>
        </mxCell>
        <mxCell id="pHcF78AE0VXEvS_Ts0Yd-125" style="edgeStyle=orthogonalEdgeStyle;rounded=0;orthogonalLoop=1;jettySize=auto;html=1;curved=0;exitX=0;exitY=1;exitDx=0;exitDy=-5;exitPerimeter=0;entryX=1;entryY=1;entryDx=0;entryDy=-5;entryPerimeter=0;" edge="1" parent="1" source="pHcF78AE0VXEvS_Ts0Yd-117" target="pHcF78AE0VXEvS_Ts0Yd-114">
          <mxGeometry relative="1" as="geometry" />
        </mxCell>
        <mxCell id="pHcF78AE0VXEvS_Ts0Yd-126" value="Saque" style="edgeLabel;html=1;align=center;verticalAlign=middle;resizable=0;points=[];" vertex="1" connectable="0" parent="pHcF78AE0VXEvS_Ts0Yd-125">
          <mxGeometry x="0.0395" relative="1" as="geometry">
            <mxPoint as="offset" />
          </mxGeometry>
        </mxCell>
        <mxCell id="pHcF78AE0VXEvS_Ts0Yd-127" value="opt" style="shape=umlFrame;whiteSpace=wrap;html=1;pointerEvents=0;" vertex="1" parent="1">
          <mxGeometry x="370" y="470" width="227.5" height="90" as="geometry" />
        </mxCell>
        <mxCell id="pHcF78AE0VXEvS_Ts0Yd-146" value="Registrar movimento&amp;nbsp;&lt;div&gt;da conta&lt;/div&gt;" style="text;html=1;align=center;verticalAlign=middle;resizable=0;points=[];autosize=1;strokeColor=none;fillColor=none;" vertex="1" parent="1">
          <mxGeometry x="457.5" y="495" width="140" height="40" as="geometry" />
        </mxCell>
        <mxCell id="pHcF78AE0VXEvS_Ts0Yd-148" value="" style="shape=umlLifeline;perimeter=lifelinePerimeter;whiteSpace=wrap;html=1;container=1;dropTarget=0;collapsible=0;recursiveResize=0;outlineConnect=0;portConstraint=eastwest;newEdgeStyle={&quot;curved&quot;:0,&quot;rounded&quot;:0};participant=umlActor;" vertex="1" parent="1">
          <mxGeometry x="35" y="720" width="20" height="380" as="geometry" />
        </mxCell>
        <mxCell id="pHcF78AE0VXEvS_Ts0Yd-152" value="" style="html=1;points=[[0,0,0,0,5],[0,1,0,0,-5],[1,0,0,0,5],[1,1,0,0,-5]];perimeter=orthogonalPerimeter;outlineConnect=0;targetShapes=umlLifeline;portConstraint=eastwest;newEdgeStyle={&quot;curved&quot;:0,&quot;rounded&quot;:0};" vertex="1" parent="pHcF78AE0VXEvS_Ts0Yd-148">
          <mxGeometry x="5" y="90" width="10" height="80" as="geometry" />
        </mxCell>
        <mxCell id="pHcF78AE0VXEvS_Ts0Yd-180" value="" style="html=1;points=[[0,0,0,0,5],[0,1,0,0,-5],[1,0,0,0,5],[1,1,0,0,-5]];perimeter=orthogonalPerimeter;outlineConnect=0;targetShapes=umlLifeline;portConstraint=eastwest;newEdgeStyle={&quot;curved&quot;:0,&quot;rounded&quot;:0};" vertex="1" parent="pHcF78AE0VXEvS_Ts0Yd-148">
          <mxGeometry x="5" y="200" width="10" height="80" as="geometry" />
        </mxCell>
        <mxCell id="pHcF78AE0VXEvS_Ts0Yd-149" value="" style="shape=umlLifeline;perimeter=lifelinePerimeter;whiteSpace=wrap;html=1;container=1;dropTarget=0;collapsible=0;recursiveResize=0;outlineConnect=0;portConstraint=eastwest;newEdgeStyle={&quot;curved&quot;:0,&quot;rounded&quot;:0};participant=umlActor;" vertex="1" parent="1">
          <mxGeometry x="140" y="720" width="20" height="380" as="geometry" />
        </mxCell>
        <mxCell id="pHcF78AE0VXEvS_Ts0Yd-153" value="" style="html=1;points=[[0,0,0,0,5],[0,1,0,0,-5],[1,0,0,0,5],[1,1,0,0,-5]];perimeter=orthogonalPerimeter;outlineConnect=0;targetShapes=umlLifeline;portConstraint=eastwest;newEdgeStyle={&quot;curved&quot;:0,&quot;rounded&quot;:0};" vertex="1" parent="pHcF78AE0VXEvS_Ts0Yd-149">
          <mxGeometry x="5" y="90" width="10" height="80" as="geometry" />
        </mxCell>
        <mxCell id="pHcF78AE0VXEvS_Ts0Yd-181" value="" style="html=1;points=[[0,0,0,0,5],[0,1,0,0,-5],[1,0,0,0,5],[1,1,0,0,-5]];perimeter=orthogonalPerimeter;outlineConnect=0;targetShapes=umlLifeline;portConstraint=eastwest;newEdgeStyle={&quot;curved&quot;:0,&quot;rounded&quot;:0};" vertex="1" parent="pHcF78AE0VXEvS_Ts0Yd-149">
          <mxGeometry x="5" y="190" width="10" height="80" as="geometry" />
        </mxCell>
        <mxCell id="pHcF78AE0VXEvS_Ts0Yd-150" value="&lt;font style=&quot;font-size: 7px;&quot;&gt;Cliente&lt;/font&gt;" style="text;html=1;align=center;verticalAlign=middle;resizable=0;points=[];autosize=1;strokeColor=none;fillColor=none;" vertex="1" parent="1">
          <mxGeometry x="20" y="698" width="50" height="30" as="geometry" />
        </mxCell>
        <mxCell id="pHcF78AE0VXEvS_Ts0Yd-151" value="&lt;font style=&quot;font-size: 7px;&quot;&gt;Funcionário&lt;/font&gt;" style="text;html=1;align=center;verticalAlign=middle;resizable=0;points=[];autosize=1;strokeColor=none;fillColor=none;" vertex="1" parent="1">
          <mxGeometry x="120" y="698" width="60" height="30" as="geometry" />
        </mxCell>
        <mxCell id="pHcF78AE0VXEvS_Ts0Yd-156" value="front" style="shape=umlLifeline;perimeter=lifelinePerimeter;whiteSpace=wrap;html=1;container=1;dropTarget=0;collapsible=0;recursiveResize=0;outlineConnect=0;portConstraint=eastwest;newEdgeStyle={&quot;curved&quot;:0,&quot;rounded&quot;:0};participant=umlBoundary;" vertex="1" parent="1">
          <mxGeometry x="225" y="740" width="40" height="360" as="geometry" />
        </mxCell>
        <mxCell id="pHcF78AE0VXEvS_Ts0Yd-161" value="" style="html=1;points=[[0,0,0,0,5],[0,1,0,0,-5],[1,0,0,0,5],[1,1,0,0,-5]];perimeter=orthogonalPerimeter;outlineConnect=0;targetShapes=umlLifeline;portConstraint=eastwest;newEdgeStyle={&quot;curved&quot;:0,&quot;rounded&quot;:0};" vertex="1" parent="pHcF78AE0VXEvS_Ts0Yd-156">
          <mxGeometry x="15" y="70" width="10" height="80" as="geometry" />
        </mxCell>
        <mxCell id="pHcF78AE0VXEvS_Ts0Yd-185" value="" style="html=1;points=[[0,0,0,0,5],[0,1,0,0,-5],[1,0,0,0,5],[1,1,0,0,-5]];perimeter=orthogonalPerimeter;outlineConnect=0;targetShapes=umlLifeline;portConstraint=eastwest;newEdgeStyle={&quot;curved&quot;:0,&quot;rounded&quot;:0};" vertex="1" parent="pHcF78AE0VXEvS_Ts0Yd-156">
          <mxGeometry x="15" y="170" width="10" height="80" as="geometry" />
        </mxCell>
        <mxCell id="pHcF78AE0VXEvS_Ts0Yd-157" value="control" style="shape=umlLifeline;perimeter=lifelinePerimeter;whiteSpace=wrap;html=1;container=1;dropTarget=0;collapsible=0;recursiveResize=0;outlineConnect=0;portConstraint=eastwest;newEdgeStyle={&quot;curved&quot;:0,&quot;rounded&quot;:0};participant=umlControl;" vertex="1" parent="1">
          <mxGeometry x="350" y="740" width="50" height="360" as="geometry" />
        </mxCell>
        <mxCell id="pHcF78AE0VXEvS_Ts0Yd-164" value="" style="html=1;points=[[0,0,0,0,5],[0,1,0,0,-5],[1,0,0,0,5],[1,1,0,0,-5]];perimeter=orthogonalPerimeter;outlineConnect=0;targetShapes=umlLifeline;portConstraint=eastwest;newEdgeStyle={&quot;curved&quot;:0,&quot;rounded&quot;:0};" vertex="1" parent="pHcF78AE0VXEvS_Ts0Yd-157">
          <mxGeometry x="20" y="70" width="10" height="80" as="geometry" />
        </mxCell>
        <mxCell id="pHcF78AE0VXEvS_Ts0Yd-188" value="" style="html=1;points=[[0,0,0,0,5],[0,1,0,0,-5],[1,0,0,0,5],[1,1,0,0,-5]];perimeter=orthogonalPerimeter;outlineConnect=0;targetShapes=umlLifeline;portConstraint=eastwest;newEdgeStyle={&quot;curved&quot;:0,&quot;rounded&quot;:0};" vertex="1" parent="pHcF78AE0VXEvS_Ts0Yd-157">
          <mxGeometry x="20" y="170" width="10" height="80" as="geometry" />
        </mxCell>
        <mxCell id="pHcF78AE0VXEvS_Ts0Yd-158" value="Sistema de&lt;div&gt;ingressos&lt;/div&gt;" style="shape=umlLifeline;perimeter=lifelinePerimeter;whiteSpace=wrap;html=1;container=1;dropTarget=0;collapsible=0;recursiveResize=0;outlineConnect=0;portConstraint=eastwest;newEdgeStyle={&quot;curved&quot;:0,&quot;rounded&quot;:0};" vertex="1" parent="1">
          <mxGeometry x="487.5" y="740" width="80" height="360" as="geometry" />
        </mxCell>
        <mxCell id="pHcF78AE0VXEvS_Ts0Yd-165" value="" style="html=1;points=[[0,0,0,0,5],[0,1,0,0,-5],[1,0,0,0,5],[1,1,0,0,-5]];perimeter=orthogonalPerimeter;outlineConnect=0;targetShapes=umlLifeline;portConstraint=eastwest;newEdgeStyle={&quot;curved&quot;:0,&quot;rounded&quot;:0};" vertex="1" parent="pHcF78AE0VXEvS_Ts0Yd-158">
          <mxGeometry x="35" y="72" width="10" height="80" as="geometry" />
        </mxCell>
        <mxCell id="pHcF78AE0VXEvS_Ts0Yd-191" value="" style="html=1;points=[[0,0,0,0,5],[0,1,0,0,-5],[1,0,0,0,5],[1,1,0,0,-5]];perimeter=orthogonalPerimeter;outlineConnect=0;targetShapes=umlLifeline;portConstraint=eastwest;newEdgeStyle={&quot;curved&quot;:0,&quot;rounded&quot;:0};" vertex="1" parent="pHcF78AE0VXEvS_Ts0Yd-158">
          <mxGeometry x="35" y="170" width="10" height="80" as="geometry" />
        </mxCell>
        <mxCell id="pHcF78AE0VXEvS_Ts0Yd-159" style="edgeStyle=orthogonalEdgeStyle;rounded=0;orthogonalLoop=1;jettySize=auto;html=1;curved=0;exitX=1;exitY=0;exitDx=0;exitDy=5;exitPerimeter=0;entryX=0;entryY=0;entryDx=0;entryDy=5;entryPerimeter=0;" edge="1" parent="1" source="pHcF78AE0VXEvS_Ts0Yd-152" target="pHcF78AE0VXEvS_Ts0Yd-153">
          <mxGeometry relative="1" as="geometry" />
        </mxCell>
        <mxCell id="pHcF78AE0VXEvS_Ts0Yd-160" value="&lt;font style=&quot;font-size: 8px;&quot;&gt;Solicita um&lt;/font&gt;&lt;div style=&quot;font-size: 8px;&quot;&gt;&lt;font style=&quot;font-size: 8px;&quot;&gt;ingresso&lt;/font&gt;&lt;/div&gt;" style="edgeLabel;html=1;align=center;verticalAlign=middle;resizable=0;points=[];" vertex="1" connectable="0" parent="pHcF78AE0VXEvS_Ts0Yd-159">
          <mxGeometry x="-0.2933" y="-1" relative="1" as="geometry">
            <mxPoint x="6" as="offset" />
          </mxGeometry>
        </mxCell>
        <mxCell id="pHcF78AE0VXEvS_Ts0Yd-162" style="edgeStyle=orthogonalEdgeStyle;rounded=0;orthogonalLoop=1;jettySize=auto;html=1;curved=0;exitX=1;exitY=0;exitDx=0;exitDy=5;exitPerimeter=0;entryX=0;entryY=0;entryDx=0;entryDy=5;entryPerimeter=0;" edge="1" parent="1" source="pHcF78AE0VXEvS_Ts0Yd-153" target="pHcF78AE0VXEvS_Ts0Yd-161">
          <mxGeometry relative="1" as="geometry" />
        </mxCell>
        <mxCell id="pHcF78AE0VXEvS_Ts0Yd-163" value="&lt;span style=&quot;font-size: 8px;&quot;&gt;seleciona a&lt;/span&gt;&lt;div&gt;&lt;span style=&quot;font-size: 8px;&quot;&gt;data&lt;/span&gt;&lt;/div&gt;" style="edgeLabel;html=1;align=center;verticalAlign=middle;resizable=0;points=[];" vertex="1" connectable="0" parent="pHcF78AE0VXEvS_Ts0Yd-162">
          <mxGeometry x="-0.3479" y="1" relative="1" as="geometry">
            <mxPoint x="12" as="offset" />
          </mxGeometry>
        </mxCell>
        <mxCell id="pHcF78AE0VXEvS_Ts0Yd-166" style="edgeStyle=orthogonalEdgeStyle;rounded=0;orthogonalLoop=1;jettySize=auto;html=1;curved=0;exitX=1;exitY=0;exitDx=0;exitDy=5;exitPerimeter=0;entryX=0;entryY=0;entryDx=0;entryDy=5;entryPerimeter=0;" edge="1" parent="1" source="pHcF78AE0VXEvS_Ts0Yd-161" target="pHcF78AE0VXEvS_Ts0Yd-164">
          <mxGeometry relative="1" as="geometry" />
        </mxCell>
        <mxCell id="pHcF78AE0VXEvS_Ts0Yd-168" value="verifica seções" style="edgeLabel;html=1;align=center;verticalAlign=middle;resizable=0;points=[];" vertex="1" connectable="0" parent="pHcF78AE0VXEvS_Ts0Yd-166">
          <mxGeometry x="-0.0833" relative="1" as="geometry">
            <mxPoint as="offset" />
          </mxGeometry>
        </mxCell>
        <mxCell id="pHcF78AE0VXEvS_Ts0Yd-170" style="edgeStyle=orthogonalEdgeStyle;rounded=0;orthogonalLoop=1;jettySize=auto;html=1;curved=0;exitX=1;exitY=0;exitDx=0;exitDy=5;exitPerimeter=0;entryX=0;entryY=0;entryDx=0;entryDy=5;entryPerimeter=0;" edge="1" parent="1" source="pHcF78AE0VXEvS_Ts0Yd-164" target="pHcF78AE0VXEvS_Ts0Yd-165">
          <mxGeometry relative="1" as="geometry">
            <Array as="points">
              <mxPoint x="380" y="817" />
            </Array>
          </mxGeometry>
        </mxCell>
        <mxCell id="pHcF78AE0VXEvS_Ts0Yd-171" value="verificaDisponibilidade()" style="edgeLabel;html=1;align=center;verticalAlign=middle;resizable=0;points=[];" vertex="1" connectable="0" parent="pHcF78AE0VXEvS_Ts0Yd-170">
          <mxGeometry x="-0.1045" y="1" relative="1" as="geometry">
            <mxPoint x="7" y="-4" as="offset" />
          </mxGeometry>
        </mxCell>
        <mxCell id="pHcF78AE0VXEvS_Ts0Yd-172" style="edgeStyle=orthogonalEdgeStyle;rounded=0;orthogonalLoop=1;jettySize=auto;html=1;curved=0;exitX=0;exitY=1;exitDx=0;exitDy=-5;exitPerimeter=0;dashed=1;dashPattern=12 12;" edge="1" parent="1" source="pHcF78AE0VXEvS_Ts0Yd-165">
          <mxGeometry relative="1" as="geometry">
            <mxPoint x="380" y="880" as="targetPoint" />
            <Array as="points">
              <mxPoint x="522" y="880" />
            </Array>
          </mxGeometry>
        </mxCell>
        <mxCell id="pHcF78AE0VXEvS_Ts0Yd-173" value="true:bool" style="edgeLabel;html=1;align=center;verticalAlign=middle;resizable=0;points=[];" vertex="1" connectable="0" parent="pHcF78AE0VXEvS_Ts0Yd-172">
          <mxGeometry x="0.1005" relative="1" as="geometry">
            <mxPoint as="offset" />
          </mxGeometry>
        </mxCell>
        <mxCell id="pHcF78AE0VXEvS_Ts0Yd-174" style="edgeStyle=orthogonalEdgeStyle;rounded=0;orthogonalLoop=1;jettySize=auto;html=1;curved=0;exitX=0;exitY=1;exitDx=0;exitDy=-5;exitPerimeter=0;entryX=1;entryY=1;entryDx=0;entryDy=-5;entryPerimeter=0;" edge="1" parent="1" source="pHcF78AE0VXEvS_Ts0Yd-164" target="pHcF78AE0VXEvS_Ts0Yd-161">
          <mxGeometry relative="1" as="geometry" />
        </mxCell>
        <mxCell id="pHcF78AE0VXEvS_Ts0Yd-175" value="&lt;font style=&quot;font-size: 8px;&quot;&gt;acentos disponiveis&lt;/font&gt;" style="edgeLabel;html=1;align=center;verticalAlign=middle;resizable=0;points=[];" vertex="1" connectable="0" parent="pHcF78AE0VXEvS_Ts0Yd-174">
          <mxGeometry x="0.15" y="-1" relative="1" as="geometry">
            <mxPoint x="9" y="-4" as="offset" />
          </mxGeometry>
        </mxCell>
        <mxCell id="pHcF78AE0VXEvS_Ts0Yd-176" style="edgeStyle=orthogonalEdgeStyle;rounded=0;orthogonalLoop=1;jettySize=auto;html=1;curved=0;exitX=0;exitY=1;exitDx=0;exitDy=-5;exitPerimeter=0;entryX=1;entryY=1;entryDx=0;entryDy=-5;entryPerimeter=0;" edge="1" parent="1" source="pHcF78AE0VXEvS_Ts0Yd-161" target="pHcF78AE0VXEvS_Ts0Yd-153">
          <mxGeometry relative="1" as="geometry" />
        </mxCell>
        <mxCell id="pHcF78AE0VXEvS_Ts0Yd-177" value="&lt;font style=&quot;font-size: 8px;&quot;&gt;informa ao&lt;/font&gt;&lt;div style=&quot;font-size: 8px;&quot;&gt;&lt;font style=&quot;font-size: 8px;&quot;&gt;cliente&lt;/font&gt;&lt;/div&gt;" style="edgeLabel;html=1;align=center;verticalAlign=middle;resizable=0;points=[];" vertex="1" connectable="0" parent="pHcF78AE0VXEvS_Ts0Yd-176">
          <mxGeometry x="0.0073" relative="1" as="geometry">
            <mxPoint as="offset" />
          </mxGeometry>
        </mxCell>
        <mxCell id="pHcF78AE0VXEvS_Ts0Yd-178" style="edgeStyle=orthogonalEdgeStyle;rounded=0;orthogonalLoop=1;jettySize=auto;html=1;curved=0;exitX=0;exitY=1;exitDx=0;exitDy=-5;exitPerimeter=0;entryX=1;entryY=1;entryDx=0;entryDy=-5;entryPerimeter=0;" edge="1" parent="1" source="pHcF78AE0VXEvS_Ts0Yd-153" target="pHcF78AE0VXEvS_Ts0Yd-152">
          <mxGeometry relative="1" as="geometry" />
        </mxCell>
        <mxCell id="pHcF78AE0VXEvS_Ts0Yd-179" value="&lt;font style=&quot;font-size: 8px;&quot;&gt;escolhe um&lt;/font&gt;&lt;div style=&quot;font-size: 8px;&quot;&gt;&lt;font style=&quot;font-size: 8px;&quot;&gt;acento&lt;/font&gt;&lt;/div&gt;" style="edgeLabel;html=1;align=center;verticalAlign=middle;resizable=0;points=[];" vertex="1" connectable="0" parent="pHcF78AE0VXEvS_Ts0Yd-178">
          <mxGeometry x="0.1669" relative="1" as="geometry">
            <mxPoint x="10" y="-5" as="offset" />
          </mxGeometry>
        </mxCell>
        <mxCell id="pHcF78AE0VXEvS_Ts0Yd-183" style="edgeStyle=orthogonalEdgeStyle;rounded=0;orthogonalLoop=1;jettySize=auto;html=1;curved=0;exitX=1;exitY=0;exitDx=0;exitDy=5;exitPerimeter=0;" edge="1" parent="1" source="pHcF78AE0VXEvS_Ts0Yd-180" target="pHcF78AE0VXEvS_Ts0Yd-181">
          <mxGeometry relative="1" as="geometry">
            <mxPoint x="140" y="930" as="targetPoint" />
            <Array as="points">
              <mxPoint x="50" y="930" />
            </Array>
          </mxGeometry>
        </mxCell>
        <mxCell id="pHcF78AE0VXEvS_Ts0Yd-184" value="&lt;font style=&quot;font-size: 8px;&quot;&gt;informa o&lt;/font&gt;&lt;div style=&quot;font-size: 8px;&quot;&gt;&lt;font style=&quot;font-size: 8px;&quot;&gt;&amp;nbsp;acento&lt;/font&gt;&lt;/div&gt;" style="edgeLabel;html=1;align=center;verticalAlign=middle;resizable=0;points=[];" vertex="1" connectable="0" parent="pHcF78AE0VXEvS_Ts0Yd-183">
          <mxGeometry x="-0.0857" relative="1" as="geometry">
            <mxPoint as="offset" />
          </mxGeometry>
        </mxCell>
        <mxCell id="pHcF78AE0VXEvS_Ts0Yd-186" style="edgeStyle=orthogonalEdgeStyle;rounded=0;orthogonalLoop=1;jettySize=auto;html=1;curved=0;exitX=1;exitY=0;exitDx=0;exitDy=5;exitPerimeter=0;entryX=0;entryY=0;entryDx=0;entryDy=5;entryPerimeter=0;" edge="1" parent="1" source="pHcF78AE0VXEvS_Ts0Yd-181" target="pHcF78AE0VXEvS_Ts0Yd-185">
          <mxGeometry relative="1" as="geometry" />
        </mxCell>
        <mxCell id="pHcF78AE0VXEvS_Ts0Yd-187" value="&lt;font style=&quot;font-size: 8px;&quot;&gt;seleciona o&lt;/font&gt;&lt;div style=&quot;font-size: 8px;&quot;&gt;&lt;font style=&quot;font-size: 8px;&quot;&gt;acento&lt;/font&gt;&lt;/div&gt;" style="edgeLabel;html=1;align=center;verticalAlign=middle;resizable=0;points=[];" vertex="1" connectable="0" parent="pHcF78AE0VXEvS_Ts0Yd-186">
          <mxGeometry x="-0.2141" y="-1" relative="1" as="geometry">
            <mxPoint x="6" y="4" as="offset" />
          </mxGeometry>
        </mxCell>
        <mxCell id="pHcF78AE0VXEvS_Ts0Yd-189" style="edgeStyle=orthogonalEdgeStyle;rounded=0;orthogonalLoop=1;jettySize=auto;html=1;curved=0;exitX=1;exitY=0;exitDx=0;exitDy=5;exitPerimeter=0;entryX=0;entryY=0;entryDx=0;entryDy=5;entryPerimeter=0;" edge="1" parent="1" source="pHcF78AE0VXEvS_Ts0Yd-185" target="pHcF78AE0VXEvS_Ts0Yd-188">
          <mxGeometry relative="1" as="geometry" />
        </mxCell>
        <mxCell id="pHcF78AE0VXEvS_Ts0Yd-190" value="reserva o acento" style="edgeLabel;html=1;align=center;verticalAlign=middle;resizable=0;points=[];" vertex="1" connectable="0" parent="pHcF78AE0VXEvS_Ts0Yd-189">
          <mxGeometry x="-0.2667" y="1" relative="1" as="geometry">
            <mxPoint x="11" y="1" as="offset" />
          </mxGeometry>
        </mxCell>
        <mxCell id="pHcF78AE0VXEvS_Ts0Yd-192" style="edgeStyle=orthogonalEdgeStyle;rounded=0;orthogonalLoop=1;jettySize=auto;html=1;curved=0;exitX=1;exitY=0;exitDx=0;exitDy=5;exitPerimeter=0;entryX=0;entryY=0;entryDx=0;entryDy=5;entryPerimeter=0;" edge="1" parent="1" source="pHcF78AE0VXEvS_Ts0Yd-188" target="pHcF78AE0VXEvS_Ts0Yd-191">
          <mxGeometry relative="1" as="geometry" />
        </mxCell>
        <mxCell id="pHcF78AE0VXEvS_Ts0Yd-193" value="reservarAcento()" style="edgeLabel;html=1;align=center;verticalAlign=middle;resizable=0;points=[];" vertex="1" connectable="0" parent="pHcF78AE0VXEvS_Ts0Yd-192">
          <mxGeometry x="-0.2421" y="1" relative="1" as="geometry">
            <mxPoint x="12" y="1" as="offset" />
          </mxGeometry>
        </mxCell>
        <mxCell id="pHcF78AE0VXEvS_Ts0Yd-194" style="edgeStyle=orthogonalEdgeStyle;rounded=0;orthogonalLoop=1;jettySize=auto;html=1;curved=0;exitX=0;exitY=1;exitDx=0;exitDy=-5;exitPerimeter=0;entryX=1;entryY=1;entryDx=0;entryDy=-5;entryPerimeter=0;dashed=1;dashPattern=12 12;" edge="1" parent="1" source="pHcF78AE0VXEvS_Ts0Yd-191" target="pHcF78AE0VXEvS_Ts0Yd-188">
          <mxGeometry relative="1" as="geometry" />
        </mxCell>
        <mxCell id="pHcF78AE0VXEvS_Ts0Yd-195" value="true:bool" style="edgeLabel;html=1;align=center;verticalAlign=middle;resizable=0;points=[];" vertex="1" connectable="0" parent="pHcF78AE0VXEvS_Ts0Yd-194">
          <mxGeometry x="-0.0161" relative="1" as="geometry">
            <mxPoint as="offset" />
          </mxGeometry>
        </mxCell>
        <mxCell id="pHcF78AE0VXEvS_Ts0Yd-196" style="edgeStyle=orthogonalEdgeStyle;rounded=0;orthogonalLoop=1;jettySize=auto;html=1;curved=0;exitX=0;exitY=1;exitDx=0;exitDy=-5;exitPerimeter=0;entryX=1;entryY=1;entryDx=0;entryDy=-5;entryPerimeter=0;" edge="1" parent="1" source="pHcF78AE0VXEvS_Ts0Yd-188" target="pHcF78AE0VXEvS_Ts0Yd-185">
          <mxGeometry relative="1" as="geometry" />
        </mxCell>
        <mxCell id="pHcF78AE0VXEvS_Ts0Yd-197" value="acento reservado" style="edgeLabel;html=1;align=center;verticalAlign=middle;resizable=0;points=[];" vertex="1" connectable="0" parent="pHcF78AE0VXEvS_Ts0Yd-196">
          <mxGeometry x="0.16" y="1" relative="1" as="geometry">
            <mxPoint x="12" y="-2" as="offset" />
          </mxGeometry>
        </mxCell>
        <mxCell id="pHcF78AE0VXEvS_Ts0Yd-198" style="edgeStyle=orthogonalEdgeStyle;rounded=0;orthogonalLoop=1;jettySize=auto;html=1;curved=0;exitX=0;exitY=1;exitDx=0;exitDy=-5;exitPerimeter=0;entryX=1;entryY=1;entryDx=0;entryDy=-5;entryPerimeter=0;" edge="1" parent="1" source="pHcF78AE0VXEvS_Ts0Yd-185" target="pHcF78AE0VXEvS_Ts0Yd-181">
          <mxGeometry relative="1" as="geometry" />
        </mxCell>
        <mxCell id="pHcF78AE0VXEvS_Ts0Yd-199" value="&lt;font style=&quot;font-size: 8px;&quot;&gt;entrega&lt;/font&gt;&lt;div style=&quot;font-size: 8px;&quot;&gt;&lt;font style=&quot;font-size: 8px;&quot;&gt;ingresso&lt;/font&gt;&lt;/div&gt;" style="edgeLabel;html=1;align=center;verticalAlign=middle;resizable=0;points=[];" vertex="1" connectable="0" parent="pHcF78AE0VXEvS_Ts0Yd-198">
          <mxGeometry x="0.0969" y="-2" relative="1" as="geometry">
            <mxPoint as="offset" />
          </mxGeometry>
        </mxCell>
        <mxCell id="pHcF78AE0VXEvS_Ts0Yd-200" value="&lt;font style=&quot;font-size: 11px;&quot;&gt;loop&lt;/font&gt;" style="shape=umlFrame;whiteSpace=wrap;html=1;pointerEvents=0;" vertex="1" parent="1">
          <mxGeometry y="800" width="550" height="40" as="geometry" />
        </mxCell>
      </root>
    </mxGraphModel>
  </diagram>
</mxfile>
